<?xml version="1.0" standalone="no"?>
<!DOCTYPE svg PUBLIC "-//W3C//DTD SVG 20010904//EN"
 "http://www.w3.org/TR/2001/REC-SVG-20010904/DTD/svg10.dtd">
<svg version="1.0" xmlns="http://www.w3.org/2000/svg"
 width="1560.000000pt" height="1560.000000pt" viewBox="0 0 1560.000000 1560.000000"
 preserveAspectRatio="xMidYMid meet">

<g transform="translate(0.000000,1560.000000) scale(0.100000,-0.100000)"
fill="#000000" stroke="none">
<path d="M0 7800 l0 -7800 7800 0 7800 0 0 7800 0 7800 -7800 0 -7800 0 0
-7800z m8320 6475 c480 -46 862 -124 1300 -267 693 -225 1423 -638 1966 -1113
262 -228 600 -580 780 -811 346 -445 631 -942 854 -1489 170 -417 340 -1129
380 -1595 30 -351 22 -984 -16 -1280 -44 -344 -151 -817 -266 -1180 -64 -202
-246 -626 -370 -860 -63 -121 -92 -160 -116 -160 -24 0 -142 70 -142 84 0 25
27 90 123 296 147 316 187 416 287 705 141 408 244 869 280 1255 30 320 21
1042 -15 1285 -102 682 -281 1275 -542 1799 -339 680 -707 1164 -1288 1695
-266 243 -370 325 -652 512 -396 264 -918 512 -1410 669 -297 95 -795 201
-1083 232 -155 16 -979 15 -1165 -1 -346 -31 -899 -153 -1270 -281 -602 -207
-1148 -509 -1655 -914 -312 -250 -620 -555 -845 -836 -419 -526 -703 -1023
-925 -1620 -141 -380 -212 -651 -285 -1095 -50 -300 -57 -412 -59 -850 -1
-416 7 -550 49 -815 105 -666 248 -1132 522 -1700 47 -96 100 -210 118 -252
l34 -77 -42 -34 c-46 -38 -99 -67 -120 -67 -52 0 -357 662 -484 1050 -137 420
-256 990 -284 1365 -17 218 -17 828 0 1005 56 605 195 1197 394 1680 259 629
586 1176 966 1615 615 711 1250 1190 2066 1560 319 144 540 223 880 314 414
110 741 164 1150 191 196 12 689 4 885 -15z m767 -3437 c73 -120 232 -480 893
-2018 795 -1850 1044 -2411 1122 -2524 52 -75 134 -158 228 -232 l102 -79
-198 -6 c-110 -4 -365 -7 -567 -8 -358 -1 -368 0 -362 18 25 79 32 230 14 327
-16 94 -44 170 -184 504 -152 360 -248 596 -295 723 l-33 87 -969 0 -969 0
-29 -66 c-56 -124 -213 -519 -252 -634 -72 -213 -89 -286 -95 -421 -5 -110 -3
-135 15 -196 12 -38 34 -85 49 -104 57 -73 179 -151 291 -185 28 -8 52 -19 52
-24 0 -4 -35 -11 -77 -15 -105 -10 -1099 -7 -1143 3 l-35 8 105 53 c184 93
284 179 389 334 113 169 148 251 1072 2562 420 1050 771 1917 781 1927 33 33
61 23 95 -34z m-3827 -1113 l0 -1156 1098 7 c603 4 1099 9 1102 11 3 3 8 518
11 1146 4 628 7 1143 8 1145 4 7 711 1 711 -7 0 -6 -9 -47 -20 -93 -19 -78
-39 -304 -56 -628 l-6 -125 -128 -325 c-71 -179 -210 -534 -309 -789 -99 -255
-182 -465 -184 -467 -2 -2 -495 -7 -1096 -10 -664 -5 -1094 -11 -1098 -17 -12
-20 -22 -438 -34 -1412 -6 -555 -14 -1012 -16 -1015 -4 -4 -621 -19 -630 -15
-1 0 -7 999 -13 2220 -6 1221 -15 2281 -19 2356 -8 117 -28 229 -56 301 -9 23
12 24 408 26 l327 2 0 -1155z m-1596 -4456 c14 -17 26 -38 26 -48 0 -19 -49
-68 -172 -171 -49 -39 -88 -74 -88 -77 0 -17 150 -201 246 -303 l62 -65 96 75
c53 41 117 88 141 104 l46 29 26 -19 c57 -43 55 -49 -32 -132 -45 -42 -191
-170 -325 -284 l-245 -206 -47 46 c-27 25 -48 49 -48 52 0 3 39 38 88 78 159
131 207 179 196 193 -70 92 -279 339 -286 339 -17 0 -52 -23 -170 -111 -65
-48 -127 -91 -139 -94 -28 -9 -81 40 -77 71 3 21 213 201 478 410 160 125 184
144 192 144 3 0 18 -14 32 -31z m8265 -204 c130 -33 730 -199 761 -211 11 -4
2 -18 -35 -51 -48 -44 -51 -45 -100 -39 -28 3 -77 15 -110 26 -32 11 -59 20
-60 20 -14 0 -271 -330 -280 -360 -4 -14 7 -57 30 -120 l38 -98 -23 -36 c-20
-33 -56 -63 -65 -54 -10 9 -147 305 -252 543 -64 144 -118 279 -121 302 -4 38
-1 46 31 78 19 19 38 35 43 35 4 0 68 -16 143 -35z m-772 -797 c80 -30 147
-96 173 -170 24 -70 25 -109 3 -195 -20 -80 -22 -77 105 -121 48 -17 109 -40
136 -52 l49 -21 -28 -29 c-45 -47 -75 -47 -211 0 -65 23 -129 44 -140 47 -28
6 -258 -145 -245 -161 4 -6 43 -58 85 -114 l76 -104 -42 -34 c-24 -19 -52 -33
-63 -32 -14 2 -95 111 -258 347 l-239 343 34 35 c79 83 303 232 398 266 62 21
100 21 167 -5z m-6364 -124 c31 -19 57 -41 57 -49 0 -11 -162 -830 -177 -892
-6 -27 -14 -28 -54 -8 -44 23 -52 54 -42 170 4 55 8 105 8 112 0 11 -352 273
-367 273 -5 0 -40 -18 -79 -40 -39 -22 -82 -43 -95 -46 -28 -7 -141 43 -127
56 18 18 799 459 813 460 3 0 31 -16 63 -36z m5262 -488 c30 -45 113 -245 161
-383 55 -160 65 -239 40 -323 -55 -187 -339 -310 -520 -224 -75 35 -122 91
-184 216 -51 104 -177 400 -188 442 -4 18 2 26 34 44 74 41 59 62 203 -277 89
-212 132 -282 190 -312 76 -38 185 -24 260 34 63 48 82 79 87 141 5 68 -18
149 -124 425 -41 106 -74 200 -72 209 3 16 35 29 75 31 13 1 29 -9 38 -23z
m-4385 -21 c28 -14 50 -28 50 -31 0 -6 -255 -545 -310 -654 -21 -41 -47 -86
-58 -100 l-20 -25 -36 19 c-20 11 -41 25 -46 31 -13 16 342 785 362 785 5 0
31 -11 58 -25z m665 -255 c15 -6 95 -28 178 -50 84 -23 176 -53 205 -67 65
-33 157 -128 166 -173 9 -49 7 -150 -4 -191 -15 -55 -80 -121 -160 -163 -38
-20 -70 -41 -70 -46 0 -4 23 -72 50 -150 28 -78 50 -148 50 -155 0 -9 -11 -10
-42 -5 -57 11 -81 42 -142 180 -27 61 -61 124 -76 139 -28 27 -110 56 -195 68
l-44 6 -16 -59 c-44 -161 -69 -195 -128 -180 -23 5 -27 12 -27 44 0 68 176
768 200 798 15 17 20 17 55 4z m2203 -176 c15 -8 48 -44 74 -79 45 -60 363
-556 421 -657 l27 -47 -37 -10 c-80 -22 -82 -21 -162 102 -58 88 -43 84 -216
61 -166 -21 -267 -43 -288 -61 -9 -9 -31 -54 -49 -99 -36 -97 -60 -124 -117
-131 l-40 -6 29 111 c16 61 68 243 116 404 47 161 93 318 102 348 8 30 22 61
30 68 22 17 79 15 110 -4z"/>
<path d="M8762 9887 c-113 -259 -289 -693 -592 -1462 -206 -520 -235 -602
-223 -615 12 -13 120 -15 856 -15 463 0 858 3 879 8 l36 8 -28 72 c-15 39
-120 288 -233 553 -279 654 -392 924 -507 1220 -100 256 -123 308 -139 318 -5
3 -27 -36 -49 -87z"/>
<path d="M11850 4952 c0 -12 72 -177 115 -263 38 -75 61 -109 76 -109 9 0 219
249 219 259 0 6 -387 122 -402 121 -5 0 -8 -4 -8 -8z"/>
<path d="M10980 4144 c-53 -18 -208 -120 -227 -150 -11 -17 -10 -27 12 -70 34
-67 134 -203 167 -227 l27 -20 97 79 c123 101 155 139 161 197 9 81 -28 152
-98 187 -45 23 -78 24 -139 4z"/>
<path d="M4575 3962 c-208 -126 -224 -136 -225 -148 0 -21 241 -204 268 -204
5 0 12 12 14 28 3 15 22 107 42 205 20 98 36 183 34 188 -2 5 -62 -26 -133
-69z"/>
<path d="M6377 3204 c-25 -49 -78 -216 -84 -265 l-5 -46 48 -20 c61 -27 188
-53 252 -53 111 0 199 132 162 244 -17 54 -78 100 -173 131 -45 14 -105 29
-134 32 -49 5 -52 4 -66 -23z"/>
<path d="M8486 3018 c-22 -59 -106 -340 -106 -355 0 -7 8 -13 18 -13 32 0 293
39 303 45 15 10 10 33 -20 94 -28 55 -168 271 -176 271 -2 0 -11 -19 -19 -42z"/>
</g>
</svg>
